<svg xmlns="http://www.w3.org/2000/svg" width="316.0294189453125" height="412.25848388671875" viewBox="-63.87448501586914 -113.03302764892578 316.0294189453125 412.25848388671875"><title>Neo4j Graph Visualization</title><desc>Created using Neo4j (http://www.neo4j.com/)</desc><g class="layer relationships"><g class="relationship" transform="translate(175.77169556732647 270.2254327565837) rotate(242.90548429189482)"><path class="outline" fill="#A5ABB6" stroke="none" d="M 21.40063509461097,12.933012701892217 L 21.90063509461097,12.06698729810778 A 63.98843826174428 63.98843826174428 0 0 0 42.457106260926096,19.60928200003852 L 42.27835915792959,20.593177051947187 A 64.98843826174428 64.98843826174428 0 0 1 21.40063509461097,12.933012701892217 Z M 61.682688321315474,21.171500902641043 L 61.562854173825016,20.17870697785341 A 63.98843826174428 63.98843826174428 0 0 0 82.53201831347786,13.874036370548415 L 81.18940870152635,11.191239428941506 L 89.01564611255257,11.188413432929353 L 84.32216446274656,17.45109895935763 L 82.97955485079504,14.768302017750718 A 64.98843826174428 64.98843826174428 0 0 1 61.682688321315474,21.171500902641043"/><text text-anchor="middle" pointer-events="none" font-size="8px" fill="#000000" x="51.973703097231905" y="24.111189974697453" transform="rotate(180 51.973703097231905 21.111189974697453)" font-family="sans-serif">trek</text></g><g class="relationship" transform="translate(125.0461075754711 171.07554067561247) rotate(315.60522886945193)"><path class="outline" fill="#A5ABB6" stroke="none" d="M 24.018736134675446,-6.953439040707552 L 24.277555179777966,-5.987513214418485 A 138.4396555412902 138.4396555412902 0 0 1 35.17032621844086,-8.440079474757368 L 34.99018962163015,-9.423721079453657 A 139.4396555412902 139.4396555412902 0 0 0 24.018736134675446,-6.953439040707552 Z M 81.40075196957692,-10.069472895076956 L 81.24805238597837,-9.081200241823382 A 138.4396555412902 138.4396555412902 0 0 1 92.204842936913,-6.932646545720983 L 91.50930953255452,-4.014387941103926 L 99.13003524841255,-5.796111702987366 L 93.13222080939097,-10.823658018543728 L 92.4366874050325,-7.90539941392667 A 139.4396555412902 139.4396555412902 0 0 0 81.40075196957692,-10.069472895076956"/><text text-anchor="middle" pointer-events="none" font-size="8px" fill="#000000" x="58.1753695833691" y="-8.191282919391114" font-family="sans-serif">twowheeler</text></g><g class="relationship" transform="translate(213.25482528581736 84.71095069201061) rotate(274.81318072149134)"><path class="outline" fill="#A5ABB6" stroke="none" d="M 24.018736134675446,-6.953439040707552 L 24.277555179777966,-5.987513214418485 A 127.6032936238783 127.6032936238783 0 0 1 32.468470844318205,-7.895334139599569 L 32.27384227135728,-8.87621115461583 A 128.6032936238783 128.6032936238783 0 0 0 24.018736134675446,-6.953439040707552 Z M 78.65987011543955,-9.54986821463747 L 78.49380786519538,-8.563752942955787 A 127.6032936238783 127.6032936238783 0 0 1 86.73667140444809,-6.894597234393023 L 86.0446919237987,-3.975493879189548 L 93.6632424800311,-5.766495672078337 L 87.65931071198062,-10.78673504133099 L 86.96733123133123,-7.867631686127515 A 128.6032936238783 128.6032936238783 0 0 0 78.65987011543955,-9.54986821463747"/><text text-anchor="middle" pointer-events="none" font-size="8px" fill="#000000" x="55.44348976277748" y="-7.821982818637139" font-family="sans-serif">twowheeler</text></g><g class="relationship" transform="translate(223.15494660826295 -32.862074305432834) rotate(204.37402070175415)"><path class="outline" fill="#A5ABB6" stroke="none" d="M 25 0.5 L 48.82865327586574 0.5 L 48.82865327586574 -0.5 L 25 -0.5 Z M 68.16459077586575 0.5 L 91.99324405173148 0.5 L 91.99324405173148 3.5 L 98.99324405173148 0 L 91.99324405173148 -3.5 L 91.99324405173148 -0.5 L 68.16459077586575 -0.5 Z"/><text text-anchor="middle" pointer-events="none" font-size="8px" fill="#000000" x="58.49662202586574" y="3" transform="rotate(180 58.49662202586574 0)" font-family="sans-serif">trek</text></g><g class="relationship" transform="translate(110.2131114375783 -84.03302738186231) rotate(499.9106736898246)"><path class="outline" fill="#A5ABB6" stroke="none" d="M 25 0.5 L 47.44516379191938 0.5 L 47.44516379191938 -0.5 L 25 -0.5 Z M 66.78110129191938 0.5 L 89.22626508383875 0.5 L 89.22626508383875 3.5 L 96.22626508383875 0 L 89.22626508383875 -3.5 L 89.22626508383875 -0.5 L 66.78110129191938 -0.5 Z"/><text text-anchor="middle" pointer-events="none" font-size="8px" fill="#000000" x="57.11313254191938" y="3" transform="rotate(180 57.11313254191938 0)" font-family="sans-serif">trek</text></g><g class="relationship" transform="translate(175.77169556732647 270.2254327565837) rotate(242.90548429189482)"><path class="outline" fill="#A5ABB6" stroke="none" d="M 25 0.5 L 41.1802842713051 0.5 L 41.1802842713051 -0.5 L 25 -0.5 Z M 63.1920030213051 0.5 L 79.3722872926102 0.5 L 79.3722872926102 3.5 L 86.3722872926102 0 L 79.3722872926102 -3.5 L 79.3722872926102 -0.5 L 63.1920030213051 -0.5 Z"/><text text-anchor="middle" pointer-events="none" font-size="8px" fill="#000000" x="52.1861436463051" y="3" transform="rotate(180 52.1861436463051 0)" font-family="sans-serif">road</text></g><g class="relationship" transform="translate(175.77169556732647 270.2254327565837) rotate(242.90548429189482)"><path class="outline" fill="#A5ABB6" stroke="none" d="M 21.40063509461097,-12.933012701892217 L 21.90063509461097,-12.06698729810778 A 63.98843826174428 63.98843826174428 0 0 1 22.747592191481218,-12.547423261029564 L 22.260828287249108,-13.420956833101478 A 64.98843826174428 64.98843826174428 0 0 0 21.40063509461097,-12.933012701892217 Z M 82.09182904779263,-15.204151421244937 L 81.6579522602209,-14.303179205687528 A 63.98843826174428 63.98843826174428 0 0 1 82.53201831347786,-13.874036370548415 L 81.18940870152635,-11.191239428941506 L 89.01564611255257,-11.188413432929353 L 84.32216446274656,-17.45109895935763 L 82.97955485079504,-14.768302017750718 A 64.98843826174428 64.98843826174428 0 0 0 82.09182904779263,-15.204151421244937"/><text text-anchor="middle" pointer-events="none" font-size="8px" fill="#000000" x="51.973703097231926" y="-18.111189974697453" transform="rotate(180 51.973703097231926 -21.111189974697453)" font-family="sans-serif">PublicTransport</text></g><g class="relationship" transform="translate(125.0461075754711 171.07554067561247) rotate(315.60522886945193)"><path class="outline" fill="#A5ABB6" stroke="none" d="M 24.018736134675446,6.953439040707552 L 24.277555179777966,5.987513214418485 A 138.4396555412902 138.4396555412902 0 0 0 48.5625136481796,10.222427811936143 L 48.47911369360753,11.218943967137534 A 139.4396555412902 139.4396555412902 0 0 1 24.018736134675446,6.953439040707552 Z M 67.8671022794811,11.488706456476706 L 67.81146009062122,10.490255683118846 A 138.4396555412902 138.4396555412902 0 0 0 92.204842936913,6.932646545720983 L 91.50930953255452,4.014387941103926 L 99.13003524841255,5.796111702987366 L 93.13222080939097,10.823658018543728 L 92.4366874050325,7.90539941392667 A 139.4396555412902 139.4396555412902 0 0 1 67.8671022794811,11.488706456476706"/><text text-anchor="middle" pointer-events="none" font-size="8px" fill="#000000" x="58.17536958336912" y="14.191282919391114" font-family="sans-serif">trek</text></g><g class="relationship" transform="translate(213.25482528581736 84.71095069201061) rotate(274.81318072149134)"><path class="outline" fill="#A5ABB6" stroke="none" d="M 24.018736134675446,6.953439040707552 L 24.277555179777966,5.987513214418485 A 127.6032936238783 127.6032936238783 0 0 0 45.835944945562865,9.819138001141198 L 45.7460744373949,10.815091459773498 A 128.6032936238783 128.6032936238783 0 0 1 24.018736134675446,6.953439040707552 Z M 65.13701545075519,11.096703076918658 L 65.07610489829128,10.098559848419598 A 127.6032936238783 127.6032936238783 0 0 0 86.73667140444809,6.894597234393023 L 86.0446919237987,3.975493879189548 L 93.6632424800311,5.766495672078337 L 87.65931071198062,10.78673504133099 L 86.96733123133123,7.867631686127515 A 128.6032936238783 128.6032936238783 0 0 1 65.13701545075519,11.096703076918658"/><text text-anchor="middle" pointer-events="none" font-size="8px" fill="#000000" x="55.44348976277753" y="13.821982818637139" font-family="sans-serif">trek</text></g><g class="relationship" transform="translate(223.15494660826295 -32.862074305432834) rotate(514.0227589094043)"><path class="outline" fill="#A5ABB6" stroke="none" d="M 21.40063509461097,12.933012701892217 L 21.90063509461097,12.06698729810778 A 56.31276191242471 56.31276191242471 0 0 0 26.033854644525352,14.230177220822334 L 25.60725220858627,15.134616473426313 A 57.31276191242471 57.31276191242471 0 0 1 21.40063509461097,12.933012701892217 Z M 71.16245819586301,16.58390915524484 L 70.79420788928576,15.654182468682727 A 56.31276191242471 56.31276191242471 0 0 0 75.0565694097325,13.758089443922891 L 73.72474590241879,11.069921639382668 L 81.55093153821197,11.098529227614264 L 76.83233408615078,17.342313183309855 L 75.50051057883707,14.65414537876963 A 57.31276191242471 57.31276191242471 0 0 1 71.16245819586301,16.58390915524484"/><text text-anchor="middle" pointer-events="none" font-size="8px" fill="#000000" x="48.25048963163046" y="23.082737701640973" transform="rotate(180 48.25048963163046 20.082737701640973)" font-family="sans-serif">twowheeler</text></g><g class="relationship" transform="translate(129.70511765667652 12.670511416310667) rotate(189.42767890564812)"><path class="outline" fill="#A5ABB6" stroke="none" d="M 24.018736134675446,6.953439040707552 L 24.277555179777966,5.987513214418485 A 119.21395664688153 119.21395664688153 0 0 0 30.386485216577107,7.453027745088292 L 30.178909584650565,8.431246717011405 A 120.21395664688153 120.21395664688153 0 0 1 24.018736134675446,6.953439040707552 Z M 76.5402582432417,9.128103128546101 L 76.36217691859062,8.144087355394817 A 119.21395664688153 119.21395664688153 0 0 0 82.5123934760535,6.8628397874284985 L 81.8233802939358,3.9430348564668343 L 89.44010717865034,5.741776517647482 L 83.4310777188771,10.755913028710717 L 82.7420645367594,7.836108097749053 A 120.21395664688153 120.21395664688153 0 0 1 76.5402582432417,9.128103128546101"/><text text-anchor="middle" pointer-events="none" font-size="8px" fill="#000000" x="53.333182990958136" y="13.536109068027528" transform="rotate(180 53.333182990958136 10.536109068027528)" font-family="sans-serif">twowheeler</text></g><g class="relationship" transform="translate(223.15494660826295 -32.862074305432834) rotate(514.0227589094043)"><path class="outline" fill="#A5ABB6" stroke="none" d="M 25 0.5 L 37.47030557969024 0.5 L 37.47030557969024 -0.5 L 25 -0.5 Z M 59.48202432969024 0.5 L 71.95232990938048 0.5 L 71.95232990938048 3.5 L 78.95232990938048 0 L 71.95232990938048 -3.5 L 71.95232990938048 -0.5 L 59.48202432969024 -0.5 Z"/><text text-anchor="middle" pointer-events="none" font-size="8px" fill="#000000" x="48.47616495469024" y="3" transform="rotate(180 48.47616495469024 0)" font-family="sans-serif">road</text></g><g class="relationship" transform="translate(223.15494660826295 -32.862074305432834) rotate(514.0227589094043)"><path class="outline" fill="#A5ABB6" stroke="none" d="M 21.40063509461097,-12.933012701892217 L 21.90063509461097,-12.06698729810778 A 56.31276191242471 56.31276191242471 0 0 1 38.76037752940093,-18.466749228625567 L 38.55977222897204,-19.446421374519197 A 57.31276191242471 57.31276191242471 0 0 0 21.40063509461097,-12.933012701892217 Z M 57.96205692304323,-20.063685386573738 L 57.82412881404198,-19.073243143559367 A 56.31276191242471 56.31276191242471 0 0 1 75.0565694097325,-13.758089443922891 L 73.72474590241879,-11.069921639382668 L 81.55093153821197,-11.098529227614264 L 76.83233408615078,-17.342313183309855 L 75.50051057883707,-14.65414537876963 A 57.31276191242471 57.31276191242471 0 0 0 57.96205692304323,-20.063685386573738"/><text text-anchor="middle" pointer-events="none" font-size="8px" fill="#000000" x="48.250489631630444" y="-17.082737701640973" transform="rotate(180 48.250489631630444 -20.082737701640973)" font-family="sans-serif">trek</text></g><g class="relationship" transform="translate(129.70511765667652 12.670511416310667) rotate(189.42767890564812)"><path class="outline" fill="#A5ABB6" stroke="none" d="M 24.018736134675446,-6.953439040707552 L 24.277555179777966,-5.987513214418485 A 119.21395664688153 119.21395664688153 0 0 1 43.7304958930812,-9.503125351322524 L 43.634853553630045,-10.498541115164102 A 120.21395664688153 120.21395664688153 0 0 0 24.018736134675446,-6.953439040707552 Z M 63.0282602362516,-10.790042984270755 L 62.962578489685114,-9.792202361642083 A 119.21395664688153 119.21395664688153 0 0 1 82.5123934760535,-6.8628397874284985 L 81.8233802939358,-3.9430348564668343 L 89.44010717865034,-5.741776517647482 L 83.4310777188771,-10.755913028710717 L 82.7420645367594,-7.836108097749053 A 120.21395664688153 120.21395664688153 0 0 0 63.0282602362516,-10.790042984270755"/><text text-anchor="middle" pointer-events="none" font-size="8px" fill="#000000" x="53.3331829909581" y="-7.536109068027528" transform="rotate(180 53.3331829909581 -10.536109068027528)" font-family="sans-serif">trek</text></g><g class="relationship" transform="translate(125.0461075754711 171.07554067561247) rotate(480.21165621894085)"><path class="outline" fill="#A5ABB6" stroke="none" d="M 25 0.5 L 44.15040507696915 0.5 L 44.15040507696915 -0.5 L 25 -0.5 Z M 63.48634257696915 0.5 L 82.6367476539383 0.5 L 82.6367476539383 3.5 L 89.6367476539383 0 L 82.6367476539383 -3.5 L 82.6367476539383 -0.5 L 63.48634257696915 -0.5 Z"/><text text-anchor="middle" pointer-events="none" font-size="8px" fill="#000000" x="53.81837382696915" y="3" transform="rotate(180 53.81837382696915 0)" font-family="sans-serif">trek</text></g><g class="relationship" transform="translate(67.36138178412234 270.14145975502964) rotate(206.8936820965198)"><path class="outline" fill="#A5ABB6" stroke="none" d="M 21.40063509461097,-12.933012701892217 L 21.90063509461097,-12.06698729810778 A 67.35189028808509 67.35189028808509 0 0 1 31.133875436436426,-16.498648519977976 L 30.770964986593548,-17.430472540592838 A 68.35189028808509 68.35189028808509 0 0 0 21.40063509461097,-12.933012701892217 Z M 76.64967720774115,-18.760885398327076 L 76.34137414720735,-17.80959720704881 A 67.35189028808509 67.35189028808509 0 0 1 85.81590577031442,-13.920432911459681 L 84.46898029863198,-11.239800192541805 L 92.29520302640319,-11.224378930686976 L 87.61180639922432,-17.494609870016852 L 86.26488092754188,-14.813977151098975 A 68.35189028808509 68.35189028808509 0 0 0 76.64967720774115,-18.760885398327076"/><text text-anchor="middle" pointer-events="none" font-size="8px" fill="#000000" x="53.60980541371315" y="-18.561918857400286" transform="rotate(180 53.60980541371315 -21.561918857400286)" font-family="sans-serif">twowheeler</text></g><g class="relationship" transform="translate(-34.87448427076009 218.28841874640074) rotate(294.7016278729079)"><path class="outline" fill="#A5ABB6" stroke="none" d="M 21.40063509461097,12.933012701892217 L 21.90063509461097,12.06698729810778 A 66.48736077383026 66.48736077383026 0 0 0 30.729278479273045,16.329584598781373 L 30.362065271859,17.259721395333735 A 67.48736077383026 67.48736077383026 0 0 1 21.40063509461097,12.933012701892217 Z M 76.22136728993723,18.598878906873665 L 75.9090561909887,17.64889902420584 A 66.48736077383026 66.48736077383026 0 0 0 84.9713914420534,13.9087440062209 L 83.62555327311225,11.227565231312164 L 91.45178161166398,11.215318074509653 L 86.76584233397494,17.48364903943255 L 85.42000416503379,14.802470264523812 A 67.48736077383026 67.48736077383026 0 0 1 76.22136728993723,18.598878906873665"/><text text-anchor="middle" pointer-events="none" font-size="8px" fill="#000000" x="53.189021781819896" y="24.446062001924176" font-family="sans-serif">twowheeler</text></g><g class="relationship" transform="translate(12.679610803492503 114.90613800230814) rotate(272.2695597399185)"><path class="outline" fill="#A5ABB6" stroke="none" d="M 25 0.5 L 47.31534552335584 0.5 L 47.31534552335584 -0.5 L 25 -0.5 Z M 66.65128302335583 0.5 L 88.96662854671168 0.5 L 88.96662854671168 3.5 L 95.96662854671168 0 L 88.96662854671168 -3.5 L 88.96662854671168 -0.5 L 66.65128302335583 -0.5 Z"/><text text-anchor="middle" pointer-events="none" font-size="8px" fill="#000000" x="56.98331427335584" y="3" font-family="sans-serif">trek</text></g><g class="relationship" transform="translate(67.36138178412234 270.14145975502964) rotate(206.8936820965198)"><path class="outline" fill="#A5ABB6" stroke="none" d="M 25 0.5 L 42.81104513369275 0.5 L 42.81104513369275 -0.5 L 25 -0.5 Z M 64.82276388369274 0.5 L 82.6338090173855 0.5 L 82.6338090173855 3.5 L 89.6338090173855 0 L 82.6338090173855 -3.5 L 82.6338090173855 -0.5 L 64.82276388369274 -0.5 Z"/><text text-anchor="middle" pointer-events="none" font-size="8px" fill="#000000" x="53.81690450869275" y="3" transform="rotate(180 53.81690450869275 0)" font-family="sans-serif">road</text></g><g class="relationship" transform="translate(67.36138178412234 270.14145975502964) rotate(206.8936820965198)"><path class="outline" fill="#A5ABB6" stroke="none" d="M 21.40063509461097,12.933012701892217 L 21.90063509461097,12.06698729810778 A 67.35189028808509 67.35189028808509 0 0 0 44.083816026110846,20.10263726132338 L 43.91317843652895,21.087971119983322 A 68.35189028808509 68.35189028808509 0 0 1 21.40063509461097,12.933012701892217 Z M 63.31760250910668,21.650669897548084 L 63.20435001180446,20.657103658259118 A 67.35189028808509 67.35189028808509 0 0 0 85.81590577031442,13.920432911459681 L 84.46898029863198,11.239800192541805 L 92.29520302640319,11.224378930686976 L 87.61180639922432,17.494609870016852 L 86.26488092754188,14.813977151098975 A 68.35189028808509 68.35189028808509 0 0 1 63.31760250910668,21.650669897548084"/><text text-anchor="middle" pointer-events="none" font-size="8px" fill="#000000" x="53.60980541371313" y="24.561918857400286" transform="rotate(180 53.60980541371313 21.561918857400286)" font-family="sans-serif">trek</text></g><g class="relationship" transform="translate(-34.87448427076009 218.28841874640074) rotate(294.7016278729079)"><path class="outline" fill="#A5ABB6" stroke="none" d="M 25 0.5 L 42.39160965961839 0.5 L 42.39160965961839 -0.5 L 25 -0.5 Z M 64.40332840961838 0.5 L 81.79493806923678 0.5 L 81.79493806923678 3.5 L 88.79493806923678 0 L 81.79493806923678 -3.5 L 81.79493806923678 -0.5 L 64.40332840961838 -0.5 Z"/><text text-anchor="middle" pointer-events="none" font-size="8px" fill="#000000" x="53.39746903461839" y="3" font-family="sans-serif">road</text></g><g class="relationship" transform="translate(-34.87448427076009 218.28841874640074) rotate(294.7016278729079)"><path class="outline" fill="#A5ABB6" stroke="none" d="M 21.40063509461097,-12.933012701892217 L 21.90063509461097,-12.06698729810778 A 66.48736077383026 66.48736077383026 0 0 1 43.66534018107069,-19.97619152110964 L 43.49269119685994,-20.961174936325847 A 67.48736077383026 67.48736077383026 0 0 0 21.40063509461097,-12.933012701892217 Z M 62.897124540480206,-21.52781227108163 L 62.78224659933599,-20.534432656514042 A 66.48736077383026 66.48736077383026 0 0 1 84.9713914420534,-13.9087440062209 L 83.62555327311225,-11.227565231312164 L 91.45178161166398,-11.215318074509653 L 86.76584233397494,-17.48364903943255 L 85.42000416503379,-14.802470264523812 A 67.48736077383026 67.48736077383026 0 0 0 62.897124540480206,-21.52781227108163"/><text text-anchor="middle" pointer-events="none" font-size="8px" fill="#000000" x="53.18902178181992" y="-18.446062001924176" font-family="sans-serif">trek</text></g><g class="relationship" transform="translate(125.0461075754711 171.07554067561247) rotate(206.55940294545508)"><path class="outline" fill="#A5ABB6" stroke="none" d="M 25 0.5 L 49.64371685364162 0.5 L 49.64371685364162 -0.5 L 25 -0.5 Z M 68.97965435364162 0.5 L 93.62337120728324 0.5 L 93.62337120728324 3.5 L 100.62337120728324 0 L 93.62337120728324 -3.5 L 93.62337120728324 -0.5 L 68.97965435364162 -0.5 Z"/><text text-anchor="middle" pointer-events="none" font-size="8px" fill="#000000" x="59.31168560364162" y="3" transform="rotate(180 59.31168560364162 0)" font-family="sans-serif">trek</text></g><g class="relationship" transform="translate(213.25482528581736 84.71095069201061) rotate(220.76943858817026)"><path class="outline" fill="#A5ABB6" stroke="none" d="M 24.018736134675446,-6.953439040707552 L 24.277555179777966,-5.987513214418485 A 112.33245713614888 112.33245713614888 0 0 1 28.686364172861825,-7.073841773398314 L 28.46679299169359,-8.049438255761984 A 113.33245713614888 113.33245713614888 0 0 0 24.018736134675446,-6.953439040707552 Z M 74.80291729475294,-8.766452612612142 L 74.61363715941442,-7.784529484069878 A 112.33245713614888 112.33245713614888 0 0 1 79.05394735001497,-6.835133946477013 L 78.36752206736259,-3.914719535586736 L 85.98265185586767,-5.720210688769839 L 79.96918106021815,-10.729019827664048 L 79.28275577756577,-7.808605416773771 A 113.33245713614888 113.33245713614888 0 0 0 74.80291729475294,-8.766452612612142"/><text text-anchor="middle" pointer-events="none" font-size="8px" fill="#000000" x="51.605551701838884" y="-7.301642386727039" transform="rotate(180 51.605551701838884 -10.301642386727039)" font-family="sans-serif">twowheeler</text></g><g class="relationship" transform="translate(213.25482528581736 84.71095069201061) rotate(220.76943858817026)"><path class="outline" fill="#A5ABB6" stroke="none" d="M 24.018736134675446,6.953439040707552 L 24.277555179777966,5.987513214418485 A 112.33245713614888 112.33245713614888 0 0 0 42.007461613368584,9.240901612882467 L 41.90647679432685,10.2357895796019 A 113.33245713614888 113.33245713614888 0 0 1 24.018736134675446,6.953439040707552 Z M 61.30202036965769,10.535920059040947 L 61.23186671640785,9.538383861734957 A 112.33245713614888 112.33245713614888 0 0 0 79.05394735001497,6.835133946477013 L 78.36752206736259,3.914719535586736 L 85.98265185586767,5.720210688769839 L 79.96918106021815,10.729019827664048 L 79.28275577756577,7.808605416773771 A 113.33245713614888 113.33245713614888 0 0 1 61.30202036965769,10.535920059040947"/><text text-anchor="middle" pointer-events="none" font-size="8px" fill="#000000" x="51.605551701838905" y="13.301642386727039" transform="rotate(180 51.605551701838905 10.301642386727039)" font-family="sans-serif">trek</text></g><g class="relationship" transform="translate(175.77169556732647 270.2254327565837) rotate(180.04438044178607)"><path class="outline" fill="#A5ABB6" stroke="none" d="M 24.018736134675446,-6.953439040707552 L 24.277555179777966,-5.987513214418485 A 108.52133273118913 108.52133273118913 0 0 1 39.731295847968866,-8.947398389453198 L 39.614879593905314,-9.940598900825307 A 109.52133273118913 109.52133273118913 0 0 0 24.018736134675446,-6.953439040707552 Z M 61.68727904008411,-10.287813167066403 L 61.6021601329535,-9.291442366787265 A 108.52133273118913 108.52133273118913 0 0 1 77.1413535722715,-6.819097701384825 L 76.45642619279138,-3.8983316229666127 L 84.07062898516068,-5.707728162334266 L 78.05459007824498,-10.71345247260911 L 77.36966269876487,-7.792686394190897 A 109.52133273118913 109.52133273118913 0 0 0 61.68727904008411,-10.287813167066403"/><text text-anchor="middle" pointer-events="none" font-size="8px" fill="#000000" x="50.65017329960378" y="-7.171801529586958" transform="rotate(180 50.65017329960378 -10.171801529586958)" font-family="sans-serif">road</text></g><g class="relationship" transform="translate(175.77169556732647 270.2254327565837) rotate(180.04438044178607)"><path class="outline" fill="#A5ABB6" stroke="none" d="M 24.018736134675446,6.953439040707552 L 24.277555179777966,5.987513214418485 A 108.52133273118913 108.52133273118913 0 0 0 41.05491339782493,9.094316527347843 L 40.950693985769725,10.088870856759186 A 109.52133273118913 109.52133273118913 0 0 1 24.018736134675446,6.953439040707552 Z M 60.347461903364604,10.393995569474669 L 60.27457638586967,9.396655255770511 A 108.52133273118913 108.52133273118913 0 0 0 77.1413535722715,6.819097701384825 L 76.45642619279138,3.8983316229666127 L 84.07062898516068,5.707728162334266 L 78.05459007824498,10.71345247260911 L 77.36966269876487,7.792686394190897 A 109.52133273118913 109.52133273118913 0 0 1 60.347461903364604,10.393995569474669"/><text text-anchor="middle" pointer-events="none" font-size="8px" fill="#000000" x="50.6501732996038" y="13.171801529586958" transform="rotate(180 50.6501732996038 10.171801529586958)" font-family="sans-serif">trek</text></g></g><g class="layer nodes"><g class="node" transform="translate(175.77169556732647,270.2254327565837)"><circle class="outline" cx="0" cy="0" r="25" fill="#F16667" stroke="#eb2728" stroke-width="2px"/><text text-anchor="middle" pointer-events="none" font-family="sans-serif" dy="1.5625" font-size="25" fill="#FFFFFF"/><text text-anchor="middle" pointer-events="none" x="0" y="5" font-size="10px" fill="#FFFFFF" font-family="sans-serif"> Darjeeling</text></g><g class="node" transform="translate(17.470002051062966,-5.965601348349512)"><circle class="outline" cx="0" cy="0" r="25" fill="#8DCC93" stroke="#5db665" stroke-width="2px"/><text text-anchor="middle" pointer-events="none" font-family="sans-serif" dy="1.5625" font-size="25" fill="#2A2C34"/><text text-anchor="middle" pointer-events="none" x="0" y="5" font-size="10px" fill="#2A2C34" font-family="sans-serif"> Sandak…</text></g><g class="node" transform="translate(125.0461075754711,171.07554067561247)"><circle class="outline" cx="0" cy="0" r="25" fill="#F16667" stroke="#eb2728" stroke-width="2px"/><text text-anchor="middle" pointer-events="none" font-family="sans-serif" dy="1.5625" font-size="25" fill="#FFFFFF"/><text text-anchor="middle" pointer-events="none" x="0" y="5" font-size="10px" fill="#FFFFFF" font-family="sans-serif"> Rimbik</text></g><g class="node" transform="translate(213.25482528581736,84.71095069201061)"><circle class="outline" cx="0" cy="0" r="25" fill="#D9C8AE" stroke="#c0a378" stroke-width="2px"/><text text-anchor="middle" pointer-events="none" font-family="sans-serif" dy="1.5625" font-size="25" fill="#2A2C34"/><text text-anchor="middle" pointer-events="none" x="0" y="5" font-size="10px" fill="#2A2C34" font-family="sans-serif"> Sirikhola</text></g><g class="node" transform="translate(223.15494660826295,-32.862074305432834)"><circle class="outline" cx="0" cy="0" r="25" fill="#D9C8AE" stroke="#c0a378" stroke-width="2px"/><text text-anchor="middle" pointer-events="none" font-family="sans-serif" dy="1.5625" font-size="25" fill="#2A2C34"/><text text-anchor="middle" pointer-events="none" x="0" y="5" font-size="10px" fill="#2A2C34" font-family="sans-serif"> Rammam</text></g><g class="node" transform="translate(110.2131114375783,-84.03302738186231)"><circle class="outline" cx="0" cy="0" r="25" fill="#8DCC93" stroke="#5db665" stroke-width="2px"/><text text-anchor="middle" pointer-events="none" font-family="sans-serif" dy="1.5625" font-size="25" fill="#2A2C34"/><text text-anchor="middle" pointer-events="none" x="0" y="5" font-size="10px" fill="#2A2C34" font-family="sans-serif"> Sabargr…</text></g><g class="node" transform="translate(129.70511765667652,12.670511416310667)"><circle class="outline" cx="0" cy="0" r="25" fill="#D9C8AE" stroke="#c0a378" stroke-width="2px"/><text text-anchor="middle" pointer-events="none" font-family="sans-serif" dy="1.5625" font-size="25" fill="#2A2C34"/><text text-anchor="middle" pointer-events="none" x="0" y="5" font-size="10px" fill="#2A2C34" font-family="sans-serif"> Gurdum</text></g><g class="node" transform="translate(67.36138178412234,270.14145975502964)"><circle class="outline" cx="0" cy="0" r="25" fill="#D9C8AE" stroke="#c0a378" stroke-width="2px"/><text text-anchor="middle" pointer-events="none" font-family="sans-serif" dy="1.5625" font-size="25" fill="#2A2C34"/><text text-anchor="middle" pointer-events="none" x="0" y="5" font-size="10px" fill="#2A2C34" font-family="sans-serif"> Tumbling</text></g><g class="node" transform="translate(-34.87448427076009,218.28841874640074)"><circle class="outline" cx="0" cy="0" r="25" fill="#D9C8AE" stroke="#c0a378" stroke-width="2px"/><text text-anchor="middle" pointer-events="none" font-family="sans-serif" dy="1.5625" font-size="25" fill="#2A2C34"/><text text-anchor="middle" pointer-events="none" x="0" y="5" font-size="10px" fill="#2A2C34" font-family="sans-serif"> Gairibus</text></g><g class="node" transform="translate(12.679610803492503,114.90613800230814)"><circle class="outline" cx="0" cy="0" r="25" fill="#D9C8AE" stroke="#c0a378" stroke-width="2px"/><text text-anchor="middle" pointer-events="none" font-family="sans-serif" dy="1.5625" font-size="25" fill="#2A2C34"/><text text-anchor="middle" pointer-events="none" x="0" y="5" font-size="10px" fill="#2A2C34" font-family="sans-serif"> BhikeBh…</text></g></g></svg>