<svg xmlns="http://www.w3.org/2000/svg" width="1007.0982055664062" height="441.13458251953125" viewBox="-408.2550048828125 -124.27116394042969 1007.0982055664062 441.13458251953125"><title>Neo4j Graph Visualization</title><desc>Created using Neo4j (http://www.neo4j.com/)</desc><g class="layer relationships"><g class="relationship" transform="translate(-123.43865962997268 96.16760161249722) rotate(538.6534237771522)"><path class="outline" fill="#A5ABB6" stroke="none" d="M 17.324116139070416,-18.03122292025696 L 18.031222920256962,-17.324116139070412 A 154.3368688795311 154.3368688795311 0 0 1 99.89808247368482,-60.10080421725432 L 99.72141835437014,-61.08507541410343 A 155.3368688795311 155.3368688795311 0 0 0 17.324116139070416,-18.03122292025696 Z M 148.78590643326973,-62.01614363422682 L 148.64671193876782,-61.02587857238713 A 154.3368688795311 154.3368688795311 0 0 1 232.0775436632609,-21.385948529080682 L 230.03823170365882,-19.18567428903152 L 237.55140221664266,-16.994266330017357 L 234.7966262760637,-24.3196475158129 L 232.75731431646162,-22.11937327576374 A 155.3368688795311 155.3368688795311 0 0 0 148.78590643326973,-62.01614363422682"/><text text-anchor="middle" pointer-events="none" font-size="8px" fill="#000000" x="124.2261492879518" y="-60.00046725285269" transform="rotate(180 124.2261492879518 -63.00046725285269)" font-family="sans-serif">CHEAPEST</text></g><g class="relationship" transform="translate(-379.25501380075895 102.18095305006514) rotate(359.2893235223694)"><path class="outline" fill="#A5ABB6" stroke="none" d="M 17.324116139070416,18.03122292025696 L 18.031222920256962,17.324116139070412 A 645.368158541579 645.368158541579 0 0 0 446.4945878412345,205.7455459540153 L 446.4513863972577,206.74461233581297 A 646.368158541579 646.368158541579 0 0 1 17.324116139070416,18.03122292025696 Z M 495.59799896027835,206.99957300710213 L 495.5651653893591,206.00011217414232 A 645.368158541579 645.368158541579 0 0 0 925.9603850942063,22.034231782852224 L 923.861188124552,19.891016422093088 L 931.3110870975867,17.49330808045189 L 928.7593143870788,24.891852263864408 L 926.6601174174244,22.74863690310527 A 646.368158541579 646.368158541579 0 0 1 495.59799896027835,206.99957300710213"/><text text-anchor="middle" pointer-events="none" font-size="8px" fill="#000000" x="471.0248623710634" y="209.83938252265176" font-family="sans-serif">CHEAPEST</text></g><g class="relationship" transform="translate(569.8431870557647 90.4080726571383) rotate(539.2893235223694)"><path class="outline" fill="#A5ABB6" stroke="none" d="M 24.018736134675446,-6.953439040707552 L 24.277555179777966,-5.987513214418485 A 1739.0446241265527 1739.0446241265527 0 0 1 446.5272033379489,-65.02103355111149 L 446.5111898208358,-66.02090532652551 A 1740.0446241265527 1740.0446241265527 0 0 0 24.018736134675446,-6.953439040707552 Z M 495.6446818209449,-66.11402567355049 L 495.63245842314285,-65.11410038206805 A 1739.0446241265527 1739.0446241265527 0 0 1 918.1028391541453,-7.681537335962904 L 917.3373715942945,-4.780837521294711 L 924.9987166483462,-6.378896332089109 L 919.1234625672797,-11.54913708885383 L 918.3579950074289,-8.648437274185635 A 1740.0446241265527 1740.0446241265527 0 0 0 495.6446818209449,-66.11402567355049"/><text text-anchor="middle" pointer-events="none" font-size="8px" fill="#000000" x="471.07855474928306" y="-62.74089763164193" transform="rotate(180 471.07855474928306 -65.74089763164193)" font-family="sans-serif">CHEAPEST</text></g><g class="relationship" transform="translate(-379.25501380075895 102.18095305006514) rotate(358.65342377715217)"><path class="outline" fill="#A5ABB6" stroke="none" d="M 24.018736134675446,6.953439040707552 L 24.277555179777966,5.987513214418485 A 397.5221926637596 397.5221926637596 0 0 0 99.913523149279,18.59764112709024 L 99.84497264607265,19.595288774564153 A 398.5221926637596 398.5221926637596 0 0 1 24.018736134675446,6.953439040707552 Z M 148.99539736473616,19.934325401002297 L 148.94061615486993,18.935827018907673 A 397.5221926637596 397.5221926637596 0 0 0 224.74334621835283,7.370313991807742 L 224.0069384514877,4.462100863286942 L 231.65191147937887,6.13673139054262 L 225.72522324083963,11.247931496502142 L 224.9888154739745,8.339718367981343 A 398.5221926637596 398.5221926637596 0 0 1 148.99539736473616,19.934325401002297"/><text text-anchor="middle" pointer-events="none" font-size="8px" fill="#000000" x="124.41840204372963" y="23.023284540478755" font-family="sans-serif">CHEAPEST</text></g><g class="relationship" transform="translate(130.24980710783058 108.37659069704526) rotate(357.65931995876736)"><path class="outline" fill="#A5ABB6" stroke="none" d="M 5.987513214418485,24.277555179777966 L 6.953439040707552,24.018736134675446 A 220.07211722396275 220.07211722396275 0 0 0 191.72834818493902,185.36925753982 L 191.6020330802399,186.3612477082818 A 221.07211722396275 221.07211722396275 0 0 1 5.987513214418485,24.277555179777966 Z M 240.72704956107597,187.11312358264917 L 240.6311520362599,186.11773237074595 A 220.07211722396275 220.07211722396275 0 0 0 430.2574106348291,30.497554190428854 L 427.38475280911814,29.632778487496942 L 432.7539969126221,23.93881521425852 L 434.08762106911047,31.650588461004737 L 431.2149632433995,30.785812758072826 A 221.07211722396275 221.07211722396275 0 0 1 240.72704956107597,187.11312358264917"/><text text-anchor="middle" pointer-events="none" font-size="8px" fill="#000000" x="216.15124124048612" y="190.60616772071288" font-family="sans-serif">CHEAPEST</text></g><g class="relationship" transform="translate(-123.43865962997268 96.16760161249722) rotate(359.5240188225687)"><path class="outline" fill="#A5ABB6" stroke="none" d="M 17.324116139070416,18.03122292025696 L 18.031222920256962,17.324116139070412 A 464.3342690758821 464.3342690758821 0 0 0 303.50165364389585,151.3418419937761 L 303.40934195696707,152.33757215423947 A 465.3342690758821 465.3342690758821 0 0 1 17.324116139070416,18.03122292025696 Z M 382.74784566741494,152.8999816846934 L 382.6696594800564,151.903042910191 A 464.3342690758821 464.3342690758821 0 0 0 670.0113382691975,21.945829599629125 L 667.9203045473562,19.794648999558042 L 675.3792652896702,17.425281015344417 L 672.7993832316527,24.814070399723903 L 670.7083495098113,22.66288979965282 A 465.3342690758821 465.3342690758821 0 0 1 382.74784566741494,152.8999816846934"/><text text-anchor="middle" pointer-events="none" font-size="8px" fill="#000000" x="343.0701297269764" y="156.81279625918387" font-family="sans-serif">BUSINESS_FLIGHT</text></g><g class="relationship" transform="translate(-123.43865962997268 96.16760161249722) rotate(362.75528583777606)"><path class="outline" fill="#A5ABB6" stroke="none" d="M 17.324116139070416,18.03122292025696 L 18.031222920256962,17.324116139070412 A 152.981603448198 152.981603448198 0 0 0 84.27843099049281,56.27384176776836 L 84.00436456564341,57.23555253238017 A 153.981603448198 153.981603448198 0 0 1 17.324116139070416,18.03122292025696 Z M 162.71635396283642,58.74021293758828 L 162.47924250906559,57.76873048355698 A 152.981603448198 152.981603448198 0 0 0 230.16663577644678,21.37930212422609 L 228.12793802486294,19.17845876821754 L 235.64171989906404,16.989147929865226 L 232.88489944522524,24.313759932237495 L 230.8462016936414,22.112916576228944 A 153.981603448198 153.981603448198 0 0 1 162.71635396283642,58.74021293758828"/><text text-anchor="middle" pointer-events="none" font-size="8px" fill="#000000" x="123.27212977315168" y="65.6033552648786" font-family="sans-serif">BUSINESS_FLIGHT</text></g><g class="relationship" transform="translate(-123.43865962997268 96.16760161249722) rotate(538.6534237771522)"><path class="outline" fill="#A5ABB6" stroke="none" d="M 24.018736134675446,6.953439040707552 L 24.277555179777966,5.987513214418485 A 397.5221926637596 397.5221926637596 0 0 0 84.87605554615342,17.27709676004082 L 84.76967704772909,18.27142246878668 A 398.5221926637596 398.5221926637596 0 0 1 24.018736134675446,6.953439040707552 Z M 164.08752144792774,18.81855211284818 L 163.99487001562215,17.822853507801597 A 397.5221926637596 397.5221926637596 0 0 0 224.74334621835283,7.370313991807742 L 224.0069384514877,4.462100863286942 L 231.65191147937887,6.13673139054262 L 225.72522324083963,11.247931496502142 L 224.9888154739745,8.339718367981343 A 398.5221926637596 398.5221926637596 0 0 1 164.08752144792774,18.81855211284818"/><text text-anchor="middle" pointer-events="none" font-size="8px" fill="#000000" x="124.41840204372963" y="23.023284540478755" transform="rotate(180 124.41840204372963 20.023284540478755)" font-family="sans-serif">BUSINESS_FLIGHT</text></g><g class="relationship" transform="translate(-123.43865962997268 96.16760161249722) rotate(359.5240188225687)"><path class="outline" fill="#A5ABB6" stroke="none" d="M 24.018736134675446,6.953439040707552 L 24.277555179777966,5.987513214418485 A 1244.4508402144772 1244.4508402144772 0 0 0 318.59619631314433,48.08128780042989 L 318.5738821034459,49.08103880745398 A 1245.4508402144772 1245.4508402144772 0 0 1 24.018736134675446,6.953439040707552 Z M 367.71135190120583,49.20820372046205 L 367.6942125506263,48.208350609919535 A 1244.4508402144772 1244.4508402144772 0 0 0 662.22678236586,7.63848869835339 L 661.4653340896301,4.736731209756792 L 669.1244578852904,6.345402301916277 L 663.2420467341666,11.507498683148855 L 662.4805984579367,8.605741194552257 A 1245.4508402144772 1245.4508402144772 0 0 1 367.71135190120583,49.20820372046205"/><text text-anchor="middle" pointer-events="none" font-size="8px" fill="#000000" x="343.1432837672079" y="51.886978345982925" font-family="sans-serif">CHEAPEST</text></g><g class="relationship" transform="translate(-123.43865962997268 96.16760161249722) rotate(362.75528583777606)"><path class="outline" fill="#A5ABB6" stroke="none" d="M 24.018736134675446,6.953439040707552 L 24.277555179777966,5.987513214418485 A 393.81953864761726 393.81953864761726 0 0 0 98.96157981892762,18.46310544876485 L 98.89240099557645,19.460709724216656 A 394.81953864761726 394.81953864761726 0 0 1 24.018736134675446,6.953439040707552 Z M 148.04279892677835,19.802223097492174 L 147.98748948873407,18.803753836040812 A 393.81953864761726 393.81953864761726 0 0 0 222.83766387440554,7.367175137261316 L 222.1015492157146,4.458887804609959 L 229.74635342704053,6.134288822424384 L 223.81915008599344,11.244891580796459 L 223.08303542730252,8.3366042481451 A 394.81953864761726 394.81953864761726 0 0 1 148.04279892677835,19.802223097492174"/><text text-anchor="middle" pointer-events="none" font-size="8px" fill="#000000" x="123.46575445748124" y="22.897070185548102" font-family="sans-serif">CHEAPEST</text></g><g class="relationship" transform="translate(569.8431870557647 90.4080726571383) rotate(539.5240188225687)"><path class="outline" fill="#A5ABB6" stroke="none" d="M 24.018736134675446,6.953439040707552 L 24.277555179777966,5.987513214418485 A 1244.4508402144772 1244.4508402144772 0 0 0 303.49321241611966,47.65244908410591 L 303.4587619424492,48.65185549036096 A 1245.4508402144772 1245.4508402144772 0 0 1 24.018736134675446,6.953439040707552 Z M 382.828490986283,48.85725973137869 L 382.7992137506926,47.85768840151968 A 1244.4508402144772 1244.4508402144772 0 0 0 662.22678236586,7.63848869835339 L 661.4653340896301,4.736731209756792 L 669.1244578852904,6.345402301916277 L 663.2420467341666,11.507498683148855 L 662.4805984579367,8.605741194552257 A 1245.4508402144772 1245.4508402144772 0 0 1 382.828490986283,48.85725973137869"/><text text-anchor="middle" pointer-events="none" font-size="8px" fill="#000000" x="343.1432837672079" y="51.886978345982925" transform="rotate(180 343.1432837672079 48.886978345982925)" font-family="sans-serif">BUSINESS_FLIGHT</text></g><g class="relationship" transform="translate(569.8431870557647 90.4080726571383) rotate(539.2893235223694)"><path class="outline" fill="#A5ABB6" stroke="none" d="M 24.018736134675446,6.953439040707552 L 24.277555179777966,5.987513214418485 A 1739.0446241265527 1739.0446241265527 0 0 0 431.4194925630619,64.7134162361508 L 431.39479168360896,65.71311112288072 A 1740.0446241265527 1740.0446241265527 0 0 1 24.018736134675446,6.953439040707552 Z M 510.7621380539071,65.86353224166533 L 510.7412266856798,64.86375090823344 A 1739.0446241265527 1739.0446241265527 0 0 0 918.1028391541453,7.681537335962904 L 917.3373715942945,4.780837521294711 L 924.9987166483462,6.378896332089109 L 919.1234625672797,11.54913708885383 L 918.3579950074289,8.648437274185635 A 1740.0446241265527 1740.0446241265527 0 0 1 510.7621380539071,65.86353224166533"/><text text-anchor="middle" pointer-events="none" font-size="8px" fill="#000000" x="471.07855474928294" y="68.74089763164193" transform="rotate(180 471.07855474928294 65.74089763164193)" font-family="sans-serif">BUSINESS_FLIGHT</text></g><g class="relationship" transform="translate(569.8431870557647 90.4080726571383) rotate(537.6593199587674)"><path class="outline" fill="#A5ABB6" stroke="none" d="M 11.542385173217793,-22.18159923254142 L 12.420064162785048,-21.70235024582136 A 235.97091762760505 235.97091762760505 0 0 1 176.90016495769413,-140.70240142345992 L 176.71952144372085,-141.6859500602133 A 236.97091762760505 236.97091762760505 0 0 0 11.542385173217793,-22.18159923254142 Z M 255.85869924472303,-142.78271270416113 L 255.7053811966899,-141.79453580899138 A 235.97091762760505 235.97091762760505 0 0 1 423.4200414406771,-27.39825756084473 L 420.82785852114023,-25.88809607555209 L 427.3757820596161,-21.601524329474117 L 426.87628533339296,-29.411806207901577 L 424.2841024138561,-27.90164472260894 A 236.97091762760505 236.97091762760505 0 0 0 255.85869924472303,-142.78271270416113"/><text text-anchor="middle" pointer-events="none" font-size="8px" fill="#000000" x="216.2499262690933" y="-142.06173939584244" transform="rotate(180 216.2499262690933 -145.06173939584244)" font-family="sans-serif">BUSINESS_FLIGHT</text></g><g class="relationship" transform="translate(569.8431870557647 90.4080726571383) rotate(537.6593199587674)"><path class="outline" fill="#A5ABB6" stroke="none" d="M 16.44653366033987,-18.835114296422724 L 17.186485024722753,-18.16245392272147 A 273.45080423964225 273.45080423964225 0 0 1 176.91270486470552,-104.33287966279482 L 176.7568666839869,-105.32066226105735 A 274.45080423964225 274.45080423964225 0 0 0 16.44653366033987,-18.835114296422724 Z M 255.97026621737305,-106.24336738371471 L 255.83747926633862,-105.25222277991821 A 273.45080423964225 273.45080423964225 0 0 1 417.5275740115798,-22.82576563253201 L 415.35532814254276,-20.75662380934749 L 422.7176125771832,-18.10204890864292 L 420.42390183696256,-25.584621396778036 L 418.2516559679255,-23.515479573593517 A 274.45080423964225 274.45080423964225 0 0 0 255.97026621737305,-106.24336738371471"/><text text-anchor="middle" pointer-events="none" font-size="8px" fill="#000000" x="216.33592329729353" y="-105.15515451761019" transform="rotate(180 216.33592329729353 -108.15515451761019)" font-family="sans-serif">BUSINESS_FLIGHT</text></g><g class="relationship" transform="translate(569.8431870557647 90.4080726571383) rotate(537.6593199587674)"><path class="outline" fill="#A5ABB6" stroke="none" d="M 20.42347816666382,-14.426764695378036 L 20.983985768904716,-13.598615416666664 A 354.21962904832026 354.21962904832026 0 0 1 176.892781749577,-71.89643254237365 L 176.7724213983497,-72.88916281080128 A 355.21962904832026 355.21962904832026 0 0 0 20.42347816666382,-14.426764695378036 Z M 256.0671769149036,-73.5871144745829 L 255.9643098624849,-72.59241936072806 A 354.21962904832026 354.21962904832026 0 0 1 412.8751437664694,-17.04803756273294 L 411.2376142746186,-14.53437546067573 L 419.0132769199114,-13.64607909875714 L 415.05851642227054,-20.399587032142552 L 413.4209869304197,-17.88592493008534 A 355.21962904832026 355.21962904832026 0 0 0 256.0671769149036,-73.5871144745829"/><text text-anchor="middle" pointer-events="none" font-size="8px" fill="#000000" x="216.40466294296544" y="-71.95777400427096" transform="rotate(180 216.40466294296544 -74.95777400427096)" font-family="sans-serif">BUSINESS_FLIGHT</text></g><g class="relationship" transform="translate(569.8431870557647 90.4080726571383) rotate(539.5240188225687)"><path class="outline" fill="#A5ABB6" stroke="none" d="M 17.324116139070416,18.03122292025696 L 18.031222920256962,17.324116139070412 A 464.3342690758821 464.3342690758821 0 0 0 318.5561692970061,152.49098778517094 L 318.496279330066,153.48919277006127 A 465.3342690758821 465.3342690758821 0 0 1 17.324116139070416,18.03122292025696 Z M 367.64609821625214,153.83760275095227 L 367.6003655756336,152.83864903551694 A 464.3342690758821 464.3342690758821 0 0 0 670.0113382691975,21.945829599629125 L 667.9203045473562,19.794648999558042 L 675.3792652896702,17.425281015344417 L 672.7993832316527,24.814070399723903 L 670.7083495098113,22.66288979965282 A 465.3342690758821 465.3342690758821 0 0 1 367.64609821625214,153.83760275095227"/><text text-anchor="middle" pointer-events="none" font-size="8px" fill="#000000" x="343.0701297269764" y="156.81279625918387" transform="rotate(180 343.0701297269764 153.81279625918387)" font-family="sans-serif">CHEAPEST</text></g><g class="relationship" transform="translate(569.8431870557647 90.4080726571383) rotate(537.6593199587674)"><path class="outline" fill="#A5ABB6" stroke="none" d="M 23.249011035194496,-9.205079352477338 L 23.59847521479359,-8.268129627477578 A 560.6534716187846 560.6534716187846 0 0 1 191.9277743536449,-42.93777196474332 L 191.87854785678562,-43.93655960583976 A 561.6534716187846 561.6534716187846 0 0 0 23.249011035194496,-9.205079352477338 Z M 241.02697652896336,-44.205818646853004 L 240.98869634927615,-43.20655160154274 A 560.6534716187846 560.6534716187846 0 0 1 409.68775436740503,-10.383314829908626 L 408.6702222377729,-7.561147512904489 L 416.4424001286867,-8.479434413601048 L 411.0444638735812,-14.146204585914143 L 410.0269317439491,-11.324037268910006 A 561.6534716187846 561.6534716187846 0 0 0 241.02697652896336,-44.205818646853004"/><text text-anchor="middle" pointer-events="none" font-size="8px" fill="#000000" x="216.4525546947545" y="-41.10906420200615" transform="rotate(180 216.4525546947545 -44.10906420200615)" font-family="sans-serif">CHEAPEST</text></g><g class="relationship" transform="translate(569.8431870557647 90.4080726571383) rotate(537.6593199587674)"><path class="outline" fill="#A5ABB6" stroke="none" d="M 24.763837585503556,-3.464440508769274 L 24.88255664816086,-2.4715126240959857 A 1639.5363954914174 1639.5363954914174 0 0 1 191.92630180518134,-13.83416899859435 L 191.90946748605054,-14.834027291403572 A 1640.5363954914174 1640.5363954914174 0 0 0 24.763837585503556,-3.464440508769274 Z M 241.04361530497334,-14.925392515816611 L 241.03049957364874,-13.925478530720056 A 1639.5363954914174 1639.5363954914174 0 0 1 408.1153472407538,-3.1841361551683036 L 407.7702706074215,-0.20404855291093904 L 415.12639775157635,-2.8756386111025085 L 408.5754494185302,-7.157586291511457 L 408.23037278519786,-4.177498689254092 A 1640.5363954914174 1640.5363954914174 0 0 0 241.04361530497334,-14.925392515816611"/><text text-anchor="middle" pointer-events="none" font-size="8px" fill="#000000" x="216.4771290778137" y="-11.56366767561326" transform="rotate(180 216.4771290778137 -14.56366767561326)" font-family="sans-serif">CHEAPEST</text></g><g class="relationship" transform="translate(569.8431870557647 90.4080726571383) rotate(537.6593199587674)"><path class="outline" fill="#A5ABB6" stroke="none" d="M 24.763837585503556,3.464440508769274 L 24.88255664816086,2.4715126240959857 A 1639.5363954914174 1639.5363954914174 0 0 0 191.92630180518145,13.83416899859435 L 191.90946748605066,14.834027291403572 A 1640.5363954914174 1640.5363954914174 0 0 1 24.763837585503556,3.464440508769274 Z M 241.04361530497326,14.925392515816611 L 241.03049957364863,13.925478530720056 A 1639.5363954914174 1639.5363954914174 0 0 0 408.1153472407538,3.1841361551683036 L 407.7702706074215,0.20404855291093904 L 415.12639775157635,2.8756386111025085 L 408.5754494185302,7.157586291511457 L 408.23037278519786,4.177498689254092 A 1640.5363954914174 1640.5363954914174 0 0 1 241.04361530497326,14.925392515816611"/><text text-anchor="middle" pointer-events="none" font-size="8px" fill="#000000" x="216.47712907781371" y="17.56366767561326" transform="rotate(180 216.47712907781371 14.56366767561326)" font-family="sans-serif">CHEAPEST</text></g><g class="relationship" transform="translate(130.24980710783058 108.37659069704526) rotate(357.65931995876736)"><path class="outline" fill="#A5ABB6" stroke="none" d="M 23.249011035194496,-9.205079352477338 L 23.59847521479359,-8.268129627477578 A 560.6534716187846 560.6534716187846 0 0 1 176.85615224459997,-41.99132301815996 L 176.7800435060852,-42.98842254173917 A 561.6534716187846 561.6534716187846 0 0 0 23.249011035194496,-9.205079352477338 Z M 256.1349629810803,-43.423167458205285 L 256.0697836772613,-42.4252938898843 A 560.6534716187846 560.6534716187846 0 0 1 409.68775436740503,-10.383314829908626 L 408.6702222377729,-7.561147512904489 L 416.4424001286867,-8.479434413601048 L 411.0444638735812,-14.146204585914143 L 410.0269317439491,-11.324037268910006 A 561.6534716187846 561.6534716187846 0 0 0 256.1349629810803,-43.423167458205285"/><text text-anchor="middle" pointer-events="none" font-size="8px" fill="#000000" x="216.4525546947545" y="-41.10906420200615" font-family="sans-serif">BUSINESS_FLIGHT</text></g><g class="relationship" transform="translate(130.24980710783058 108.37659069704526) rotate(357.65931995876736)"><path class="outline" fill="#A5ABB6" stroke="none" d="M 20.42347816666382,-14.426764695378036 L 20.983985768904716,-13.598615416666664 A 354.21962904832026 354.21962904832026 0 0 1 176.892781749577,-71.89643254237365 L 176.7724213983497,-72.88916281080128 A 355.21962904832026 355.21962904832026 0 0 0 20.42347816666382,-14.426764695378036 Z M 256.0671769149036,-73.5871144745829 L 255.9643098624849,-72.59241936072806 A 354.21962904832026 354.21962904832026 0 0 1 412.8751437664694,-17.04803756273294 L 411.2376142746186,-14.53437546067573 L 419.0132769199114,-13.64607909875714 L 415.05851642227054,-20.399587032142552 L 413.4209869304197,-17.88592493008534 A 355.21962904832026 355.21962904832026 0 0 0 256.0671769149036,-73.5871144745829"/><text text-anchor="middle" pointer-events="none" font-size="8px" fill="#000000" x="216.40466294296544" y="-71.95777400427096" font-family="sans-serif">BUSINESS_FLIGHT</text></g><g class="relationship" transform="translate(130.24980710783058 108.37659069704526) rotate(182.75528583777606)"><path class="outline" fill="#A5ABB6" stroke="none" d="M 24.018736134675446,6.953439040707552 L 24.277555179777966,5.987513214418485 A 393.81953864761726 393.81953864761726 0 0 0 83.9253789108715,17.130426812119822 L 83.81801965350812,18.12464710453912 A 394.81953864761726 394.81953864761726 0 0 1 24.018736134675446,6.953439040707552 Z M 163.13429069853618,18.67576303483412 L 163.04075748913687,17.680146874489424 A 393.81953864761726 393.81953864761726 0 0 0 222.83766387440554,7.367175137261316 L 222.1015492157146,4.458887804609959 L 229.74635342704053,6.134288822424384 L 223.81915008599344,11.244891580796459 L 223.08303542730252,8.3366042481451 A 394.81953864761726 394.81953864761726 0 0 1 163.13429069853618,18.67576303483412"/><text text-anchor="middle" pointer-events="none" font-size="8px" fill="#000000" x="123.46575445748124" y="22.897070185548102" transform="rotate(180 123.46575445748124 19.897070185548102)" font-family="sans-serif">BUSINESS_FLIGHT</text></g><g class="relationship" transform="translate(130.24980710783058 108.37659069704526) rotate(357.65931995876736)"><path class="outline" fill="#A5ABB6" stroke="none" d="M 16.44653366033987,-18.835114296422724 L 17.186485024722753,-18.16245392272147 A 273.45080423964225 273.45080423964225 0 0 1 176.91270486470552,-104.33287966279482 L 176.7568666839869,-105.32066226105735 A 274.45080423964225 274.45080423964225 0 0 0 16.44653366033987,-18.835114296422724 Z M 255.97026621737305,-106.24336738371471 L 255.83747926633862,-105.25222277991821 A 273.45080423964225 273.45080423964225 0 0 1 417.5275740115798,-22.82576563253201 L 415.35532814254276,-20.75662380934749 L 422.7176125771832,-18.10204890864292 L 420.42390183696256,-25.584621396778036 L 418.2516559679255,-23.515479573593517 A 274.45080423964225 274.45080423964225 0 0 0 255.97026621737305,-106.24336738371471"/><text text-anchor="middle" pointer-events="none" font-size="8px" fill="#000000" x="216.33592329729353" y="-105.15515451761019" font-family="sans-serif">BUSINESS_FLIGHT</text></g><g class="relationship" transform="translate(130.24980710783058 108.37659069704526) rotate(357.65931995876736)"><path class="outline" fill="#A5ABB6" stroke="none" d="M 11.542385173217793,-22.18159923254142 L 12.420064162785048,-21.70235024582136 A 235.97091762760505 235.97091762760505 0 0 1 191.81225048159527,-142.9512721805679 L 191.6948015581835,-143.94435110511995 A 236.97091762760505 236.97091762760505 0 0 0 11.542385173217793,-22.18159923254142 Z M 240.82658561419655,-144.62525160068293 L 240.73670199002024,-143.62929932566922 A 235.97091762760505 235.97091762760505 0 0 1 423.4200414406771,-27.39825756084473 L 420.82785852114023,-25.88809607555209 L 427.3757820596161,-21.601524329474117 L 426.87628533339296,-29.411806207901577 L 424.2841024138561,-27.90164472260894 A 236.97091762760505 236.97091762760505 0 0 0 240.82658561419655,-144.62525160068293"/><text text-anchor="middle" pointer-events="none" font-size="8px" fill="#000000" x="216.2499262690933" y="-142.06173939584244" font-family="sans-serif">CHEAPEST</text></g><g class="relationship" transform="translate(130.24980710783058 108.37659069704526) rotate(357.65931995876736)"><path class="outline" fill="#A5ABB6" stroke="none" d="M 5.987513214418485,-24.277555179777966 L 6.953439040707552,-24.018736134675446 A 220.07211722396275 220.07211722396275 0 0 1 191.72834818493894,-185.36925753982 L 191.6020330802398,-186.36124770828178 A 221.07211722396275 221.07211722396275 0 0 0 5.987513214418485,-24.277555179777966 Z M 240.72704956107597,-187.11312358264917 L 240.6311520362599,-186.11773237074595 A 220.07211722396275 220.07211722396275 0 0 1 430.2574106348291,-30.497554190428854 L 427.38475280911814,-29.632778487496942 L 432.7539969126221,-23.93881521425852 L 434.08762106911047,-31.650588461004737 L 431.2149632433995,-30.785812758072826 A 221.07211722396275 221.07211722396275 0 0 0 240.72704956107597,-187.11312358264917"/><text text-anchor="middle" pointer-events="none" font-size="8px" fill="#000000" x="216.1512412404861" y="-184.60616772071288" font-family="sans-serif">CHEAPEST</text></g><g class="relationship" transform="translate(130.24980710783058 108.37659069704526) rotate(182.75528583777606)"><path class="outline" fill="#A5ABB6" stroke="none" d="M 17.324116139070416,18.03122292025696 L 18.031222920256962,17.324116139070412 A 152.981603448198 152.981603448198 0 0 0 98.94730571276622,59.68336790406251 L 98.76912581539227,60.66736583300941 A 153.981603448198 153.981603448198 0 0 1 17.324116139070416,18.03122292025696 Z M 147.83122218730523,61.605238123783366 L 147.69077898118346,60.61514938742978 A 152.981603448198 152.981603448198 0 0 0 230.16663577644678,21.37930212422609 L 228.12793802486294,19.17845876821754 L 235.64171989906404,16.989147929865226 L 232.88489944522524,24.313759932237495 L 230.8462016936414,22.112916576228944 A 153.981603448198 153.981603448198 0 0 1 147.83122218730523,61.605238123783366"/><text text-anchor="middle" pointer-events="none" font-size="8px" fill="#000000" x="123.27212977315168" y="65.6033552648786" transform="rotate(180 123.27212977315168 62.6033552648786)" font-family="sans-serif">CHEAPEST</text></g><g class="relationship" transform="translate(-379.25501380075895 102.18095305006514) rotate(360.69668897835925)"><path class="outline" fill="#A5ABB6" stroke="none" d="M 17.324116139070416,18.03122292025696 L 18.031222920256962,17.324116139070412 A 334.24724573699996 334.24724573699996 0 0 0 211.66475192900037,112.48226311098259 L 211.53695741284622,113.47406377726637 A 335.24724573699996 335.24724573699996 0 0 1 17.324116139070416,18.03122292025696 Z M 290.81743925311315,114.23679319511015 L 290.70875015053997,113.24271740374317 A 334.24724573699996 334.24724573699996 0 0 0 486.1372344296388,21.827598173488227 L 484.0571198999456,19.665857314051284 L 491.52798218994053,17.33428774744355 L 488.9107204692297,24.709919319404154 L 486.8306059395365,22.54817845996721 A 335.24724573699996 335.24724573699996 0 0 1 290.81743925311315,114.23679319511015"/><text text-anchor="middle" pointer-events="none" font-size="8px" fill="#000000" x="251.1593813895322" y="118.70737732727511" font-family="sans-serif">BUSINESS_FLIGHT</text></g><g class="relationship" transform="translate(-379.25501380075895 102.18095305006514) rotate(358.65342377715217)"><path class="outline" fill="#A5ABB6" stroke="none" d="M 17.324116139070416,-18.03122292025696 L 18.031222920256962,-17.324116139070412 A 154.3368688795311 154.3368688795311 0 0 1 85.22199212780161,-56.72007966880422 L 84.95023672892145,-57.682446024813956 A 155.3368688795311 155.3368688795311 0 0 0 17.324116139070416,-18.03122292025696 Z M 163.6755464986186,-59.17637038672855 L 163.44049813392638,-58.204386710808265 A 154.3368688795311 154.3368688795311 0 0 1 232.0775436632609,-21.385948529080682 L 230.03823170365882,-19.18567428903152 L 237.55140221664266,-16.994266330017357 L 234.7966262760637,-24.3196475158129 L 232.75731431646162,-22.11937327576374 A 155.3368688795311 155.3368688795311 0 0 0 163.6755464986186,-59.17637038672855"/><text text-anchor="middle" pointer-events="none" font-size="8px" fill="#000000" x="124.2261492879518" y="-60.00046725285269" font-family="sans-serif">BUSINESS_FLIGHT</text></g><g class="relationship" transform="translate(-379.25501380075895 102.18095305006514) rotate(360.69668897835925)"><path class="outline" fill="#A5ABB6" stroke="none" d="M 24.018736134675446,6.953439040707552 L 24.277555179777966,5.987513214418485 A 889.0464830472245 889.0464830472245 0 0 0 211.62304572434226,35.25229983216809 L 211.57495299571133,36.25114270742563 A 890.0464830472245 890.0464830472245 0 0 1 24.018736134675446,6.953439040707552 Z M 290.944307109609,36.52965325821083 L 290.9032254460866,35.530497466093266 A 889.0464830472245 889.0464830472245 0 0 0 478.4494826466567,7.581222462555383 L 477.69338123932135,4.6780671684270185 L 485.3495285675121,6.300845061127691 L 479.45761785643714,11.452096188059867 L 478.7015164491018,8.548940893931503 A 890.0464830472245 890.0464830472245 0 0 1 290.944307109609,36.52965325821083"/><text text-anchor="middle" pointer-events="none" font-size="8px" fill="#000000" x="251.2582784990634" y="39.77556089934512" font-family="sans-serif">BUSINESS_FLIGHT</text></g><g class="relationship" transform="translate(-379.25501380075895 102.18095305006514) rotate(359.2893235223694)"><path class="outline" fill="#A5ABB6" stroke="none" d="M 17.324116139070416,-18.03122292025696 L 18.031222920256962,-17.324116139070412 A 645.368158541579 645.368158541579 0 0 1 431.41416806500126,-204.91655036679123 L 431.347599462951,-205.91433221730819 A 646.368158541579 646.368158541579 0 0 0 17.324116139070416,-18.03122292025696 Z M 510.7095872962106,-206.326042905748 L 510.6533744976233,-205.32762409519063 A 645.368158541579 645.368158541579 0 0 1 925.9603850942063,-22.034231782852224 L 923.861188124552,-19.891016422093088 L 931.3110870975867,-17.49330808045189 L 928.7593143870788,-24.891852263864408 L 926.6601174174244,-22.74863690310527 A 646.368158541579 646.368158541579 0 0 0 510.7095872962106,-206.326042905748"/><text text-anchor="middle" pointer-events="none" font-size="8px" fill="#000000" x="471.02486237106336" y="-203.83938252265176" font-family="sans-serif">BUSINESS_FLIGHT</text></g><g class="relationship" transform="translate(-379.25501380075895 102.18095305006514) rotate(360.69668897835925)"><path class="outline" fill="#A5ABB6" stroke="none" d="M 24.018736134675446,-6.953439040707552 L 24.277555179777966,-5.987513214418485 A 889.0464830472245 889.0464830472245 0 0 1 226.7177500002796,-35.85059337409052 L 226.68663580377694,-36.850109210271285 A 890.0464830472245 890.0464830472245 0 0 0 24.018736134675446,-6.953439040707552 Z M 275.82879290123907,-37.022551198653105 L 275.80469407456434,-36.02284161754824 A 889.0464830472245 889.0464830472245 0 0 1 478.4494826466567,-7.581222462555383 L 477.69338123932135,-4.6780671684270185 L 485.3495285675121,-6.300845061127691 L 479.45761785643714,-11.452096188059867 L 478.7015164491018,-8.548940893931503 A 890.0464830472245 890.0464830472245 0 0 0 275.82879290123907,-37.022551198653105"/><text text-anchor="middle" pointer-events="none" font-size="8px" fill="#000000" x="251.2582784990633" y="-33.77556089934512" font-family="sans-serif">CHEAPEST</text></g><g class="relationship" transform="translate(-379.25501380075895 102.18095305006514) rotate(360.69668897835925)"><path class="outline" fill="#A5ABB6" stroke="none" d="M 17.324116139070416,-18.03122292025696 L 18.031222920256962,-17.324116139070412 A 334.24724573699996 334.24724573699996 0 0 1 226.67211167594874,-114.07246970107806 L 226.58921613783662,-115.06902794310966 A 335.24724573699996 335.24724573699996 0 0 0 17.324116139070416,-18.03122292025696 Z M 275.73728031899566,-115.5418640499407 L 275.67357341724846,-114.54389539779291 A 334.24724573699996 334.24724573699996 0 0 1 486.1372344296388,-21.827598173488227 L 484.0571198999456,-19.665857314051284 L 491.52798218994053,-17.33428774744355 L 488.9107204692297,-24.709919319404154 L 486.8306059395365,-22.54817845996721 A 335.24724573699996 335.24724573699996 0 0 0 275.73728031899566,-115.5418640499407"/><text text-anchor="middle" pointer-events="none" font-size="8px" fill="#000000" x="251.1593813895322" y="-112.70737732727511" font-family="sans-serif">CHEAPEST</text></g></g><g class="layer nodes"><g class="node" transform="translate(-123.43865962997268,96.16760161249722)"><circle class="outline" cx="0" cy="0" r="25" fill="#ECB5C9" stroke="#da7298" stroke-width="2px"/><text text-anchor="middle" pointer-events="none" font-family="sans-serif" dy="1.5625" font-size="25" fill="#2A2C34"/><text text-anchor="middle" pointer-events="none" x="0" y="5" font-size="10px" fill="#2A2C34" font-family="sans-serif"> IAH</text></g><g class="node" transform="translate(569.8431870557647,90.4080726571383)"><circle class="outline" cx="0" cy="0" r="25" fill="#ECB5C9" stroke="#da7298" stroke-width="2px"/><text text-anchor="middle" pointer-events="none" font-family="sans-serif" dy="1.5625" font-size="25" fill="#2A2C34"/><text text-anchor="middle" pointer-events="none" x="0" y="5" font-size="10px" fill="#2A2C34" font-family="sans-serif"> EWR</text></g><g class="node" transform="translate(130.24980710783058,108.37659069704526)"><circle class="outline" cx="0" cy="0" r="25" fill="#ECB5C9" stroke="#da7298" stroke-width="2px"/><text text-anchor="middle" pointer-events="none" font-family="sans-serif" dy="1.5625" font-size="25" fill="#2A2C34"/><text text-anchor="middle" pointer-events="none" x="0" y="5" font-size="10px" fill="#2A2C34" font-family="sans-serif"> SFO</text></g><g class="node" transform="translate(-379.25501380075895,102.18095305006514)"><circle class="outline" cx="0" cy="0" r="25" fill="#ECB5C9" stroke="#da7298" stroke-width="2px"/><text text-anchor="middle" pointer-events="none" font-family="sans-serif" dy="1.5625" font-size="25" fill="#2A2C34"/><text text-anchor="middle" pointer-events="none" x="0" y="5" font-size="10px" fill="#2A2C34" font-family="sans-serif"> HNL</text></g></g></svg>