<svg xmlns="http://www.w3.org/2000/svg" width="740.281982421875" height="144.1107940673828" viewBox="-455.0647888183594 21.270282745361328 740.281982421875 144.1107940673828"><title>Neo4j Graph Visualization</title><desc>Created using Neo4j (http://www.neo4j.com/)</desc><g class="layer relationships"><g class="relationship" transform="translate(256.2172068224751 116.43542908322546) rotate(183.78010882915504)"><path class="outline" fill="#A5ABB6" stroke="none" d="M 21.40063509461097,12.933012701892217 L 21.90063509461097,12.06698729810778 A 221.32231419752716 221.32231419752716 0 0 0 99.05677664048633,39.16776702136343 L 98.90539102139786,40.15624180320319 A 222.32231419752716 222.32231419752716 0 0 1 21.40063509461097,12.933012701892217 Z M 160.56659724243192,40.94769120309178 L 160.4406323560455,39.95565650238942 A 221.32231419752716 221.32231419752716 0 0 0 238.26694219626356,14.84414646197263 L 236.83412033571838,12.20842615891621 L 244.65575988015274,11.94018217120993 L 240.17737134365714,18.35844019938119 L 238.74454948311197,15.72271989632477 A 222.32231419752716 222.32231419752716 0 0 1 160.56659724243192,40.94769120309178"/><text text-anchor="middle" pointer-events="none" font-size="8px" fill="#000000" x="129.7148372235506" y="45.20028475297224" transform="rotate(180 129.7148372235506 42.20028475297224)" font-family="sans-serif">PublicTransport</text></g><g class="relationship" transform="translate(-9.822834564709025 98.85783452209112) rotate(183.35059810450707)"><path class="outline" fill="#A5ABB6" stroke="none" d="M 25 0.5 L 104.9499210938163 0.5 L 104.9499210938163 -0.5 L 25 -0.5 Z M 124.2858585938163 0.5 L 204.2357796876326 0.5 L 204.2357796876326 3.5 L 211.2357796876326 0 L 204.2357796876326 -3.5 L 204.2357796876326 -0.5 L 124.2858585938163 -0.5 Z"/><text text-anchor="middle" pointer-events="none" font-size="8px" fill="#000000" x="114.6178898438163" y="3" transform="rotate(180 114.6178898438163 0)" font-family="sans-serif">trek</text></g><g class="relationship" transform="translate(-245.65479100016552 85.0508823439805) rotate(190.91197740190557)"><path class="outline" fill="#A5ABB6" stroke="none" d="M 25 0.5 L 78.69803863744846 0.5 L 78.69803863744846 -0.5 L 25 -0.5 Z M 98.03397613744846 0.5 L 151.73201477489692 0.5 L 151.73201477489692 3.5 L 158.73201477489692 0 L 151.73201477489692 -3.5 L 151.73201477489692 -0.5 L 98.03397613744846 -0.5 Z"/><text text-anchor="middle" pointer-events="none" font-size="8px" fill="#000000" x="88.36600738744846" y="3" transform="rotate(180 88.36600738744846 0)" font-family="sans-serif">trek</text></g><g class="relationship" transform="translate(256.2172068224751 116.43542908322546) rotate(183.78010882915504)"><path class="outline" fill="#A5ABB6" stroke="none" d="M 25 0.5 L 120.14207911947815 0.5 L 120.14207911947815 -0.5 L 25 -0.5 Z M 139.47801661947815 0.5 L 234.6200957389563 0.5 L 234.6200957389563 3.5 L 241.6200957389563 0 L 234.6200957389563 -3.5 L 234.6200957389563 -0.5 L 139.47801661947815 -0.5 Z"/><text text-anchor="middle" pointer-events="none" font-size="8px" fill="#000000" x="129.81004786947815" y="3" transform="rotate(180 129.81004786947815 0)" font-family="sans-serif">trek</text></g><g class="relationship" transform="translate(256.2172068224751 116.43542908322546) rotate(183.78010882915504)"><path class="outline" fill="#A5ABB6" stroke="none" d="M 21.40063509461097,-12.933012701892217 L 21.90063509461097,-12.06698729810778 A 221.32231419752716 221.32231419752716 0 0 1 118.74910733729966,-41.28711089064092 L 118.68669752152417,-42.285161498022575 A 222.32231419752716 222.32231419752716 0 0 0 21.40063509461097,-12.933012701892217 Z M 140.73716527471325,-42.56818919955609 L 140.7003926587442,-41.56886554091753 A 221.32231419752716 221.32231419752716 0 0 1 238.26694219626356,-14.84414646197263 L 236.83412033571838,-12.20842615891621 L 244.65575988015274,-11.94018217120993 L 240.17737134365714,-18.35844019938119 L 238.74454948311197,-15.72271989632477 A 222.32231419752716 222.32231419752716 0 0 0 140.73716527471325,-42.56818919955609"/><text text-anchor="middle" pointer-events="none" font-size="8px" fill="#000000" x="129.71483722355063" y="-39.20028475297224" transform="rotate(180 129.71483722355063 -42.20028475297224)" font-family="sans-serif">road</text></g></g><g class="layer nodes"><g class="node" transform="translate(256.2172068224751,116.43542908322546)"><circle class="outline" cx="0" cy="0" r="25" fill="#F16667" stroke="#eb2728" stroke-width="2px"/><text text-anchor="middle" pointer-events="none" font-family="sans-serif" dy="1.5625" font-size="25" fill="#FFFFFF"/><text text-anchor="middle" pointer-events="none" x="0" y="5" font-size="10px" fill="#FFFFFF" font-family="sans-serif"> Darjeeling</text></g><g class="node" transform="translate(-426.0647769373984,50.27028103563069)"><circle class="outline" cx="0" cy="0" r="25" fill="#8DCC93" stroke="#5db665" stroke-width="2px"/><text text-anchor="middle" pointer-events="none" font-family="sans-serif" dy="1.5625" font-size="25" fill="#2A2C34"/><text text-anchor="middle" pointer-events="none" x="0" y="5" font-size="10px" fill="#2A2C34" font-family="sans-serif"> Sandak…</text></g><g class="node" transform="translate(-9.822834564709025,98.85783452209112)"><circle class="outline" cx="0" cy="0" r="25" fill="#F16667" stroke="#eb2728" stroke-width="2px"/><text text-anchor="middle" pointer-events="none" font-family="sans-serif" dy="1.5625" font-size="25" fill="#FFFFFF"/><text text-anchor="middle" pointer-events="none" x="0" y="5" font-size="10px" fill="#FFFFFF" font-family="sans-serif"> Rimbik</text></g><g class="node" transform="translate(-245.65479100016552,85.0508823439805)"><circle class="outline" cx="0" cy="0" r="25" fill="#D9C8AE" stroke="#c0a378" stroke-width="2px"/><text text-anchor="middle" pointer-events="none" font-family="sans-serif" dy="1.5625" font-size="25" fill="#2A2C34"/><text text-anchor="middle" pointer-events="none" x="0" y="5" font-size="10px" fill="#2A2C34" font-family="sans-serif"> BhikeBh…</text></g></g></svg>