<svg xmlns="http://www.w3.org/2000/svg" width="282.50030517578125" height="275.9978942871094" viewBox="-35.61235046386719 -43.47178649902344 282.50030517578125 275.9978942871094"><title>Neo4j Graph Visualization</title><desc>Created using Neo4j (http://www.neo4j.com/)</desc><g class="layer relationships"><g class="relationship" transform="translate(131.4380347088878 203.52612671810456) rotate(257.9778689509808)"><path class="outline" fill="#A5ABB6" stroke="none" d="M 25 0.5 L 31.03436759379455 0.5 L 31.03436759379455 -0.5 L 25 -0.5 Z M 76.59686759379454 0.5 L 82.6312351875891 0.5 L 82.6312351875891 3.5 L 89.6312351875891 0 L 82.6312351875891 -3.5 L 82.6312351875891 -0.5 L 76.59686759379454 -0.5 Z"/><text text-anchor="middle" pointer-events="none" font-size="8px" fill="#000000" x="53.81561759379455" y="3" transform="rotate(180 53.81561759379455 0)" font-family="sans-serif">ACTED_IN</text></g><g class="relationship" transform="translate(217.88791161759656 120.91685607111496) rotate(194.97379477183097)"><path class="outline" fill="#A5ABB6" stroke="none" d="M 25 0.5 L 35.71541501176702 0.5 L 35.71541501176702 -0.5 L 25 -0.5 Z M 71.48885251176702 0.5 L 82.20426752353404 0.5 L 82.20426752353404 3.5 L 89.20426752353404 0 L 82.20426752353404 -3.5 L 82.20426752353404 -0.5 L 71.48885251176702 -0.5 Z"/><text text-anchor="middle" pointer-events="none" font-size="8px" fill="#000000" x="53.60213376176702" y="3" transform="rotate(180 53.60213376176702 0)" font-family="sans-serif">WROTE</text></g><g class="relationship" transform="translate(183.9247745691163 5.112230324779838) rotate(491.50529722038925)"><path class="outline" fill="#A5ABB6" stroke="none" d="M 25 0.5 L 31.334908205142746 0.5 L 31.334908205142746 -0.5 L 25 -0.5 Z M 76.89740820514274 0.5 L 83.23231641028549 0.5 L 83.23231641028549 3.5 L 90.23231641028549 0 L 83.23231641028549 -3.5 L 83.23231641028549 -0.5 L 76.89740820514274 -0.5 Z"/><text text-anchor="middle" pointer-events="none" font-size="8px" fill="#000000" x="54.116158205142746" y="3" transform="rotate(180 54.116158205142746 0)" font-family="sans-serif">ACTED_IN</text></g><g class="relationship" transform="translate(64.82401579437496 -14.47178564472662) rotate(428.01912537560986)"><path class="outline" fill="#A5ABB6" stroke="none" d="M 25 0.5 L 35.70367740508152 0.5 L 35.70367740508152 -0.5 L 25 -0.5 Z M 71.47711490508152 0.5 L 82.18079231016304 0.5 L 82.18079231016304 3.5 L 89.18079231016304 0 L 82.18079231016304 -3.5 L 82.18079231016304 -0.5 L 71.47711490508152 -0.5 Z"/><text text-anchor="middle" pointer-events="none" font-size="8px" fill="#000000" x="53.59039615508152" y="3" font-family="sans-serif">WROTE</text></g><g class="relationship" transform="translate(-6.61235151888845 81.4450660560417) rotate(364.98759160112724)"><path class="outline" fill="#A5ABB6" stroke="none" d="M 25 0.5 L 30.358618089554177 0.5 L 30.358618089554177 -0.5 L 25 -0.5 Z M 77.24924308955417 0.5 L 82.60786117910835 0.5 L 82.60786117910835 3.5 L 89.60786117910835 0 L 82.60786117910835 -3.5 L 82.60786117910835 -0.5 L 77.24924308955417 -0.5 Z"/><text text-anchor="middle" pointer-events="none" font-size="8px" fill="#000000" x="53.80393058955418" y="3" font-family="sans-serif">DIRECTED</text></g><g class="relationship" transform="translate(30.310471358864824 178.78690856260081) rotate(311.4800223388215)"><path class="outline" fill="#A5ABB6" stroke="none" d="M 25 0.5 L 32.03387599703402 0.5 L 32.03387599703402 -0.5 L 25 -0.5 Z M 77.59637599703402 0.5 L 84.63025199406805 0.5 L 84.63025199406805 3.5 L 91.63025199406805 0 L 84.63025199406805 -3.5 L 84.63025199406805 -0.5 L 77.59637599703402 -0.5 Z"/><text text-anchor="middle" pointer-events="none" font-size="8px" fill="#000000" x="54.81512599703402" y="3" font-family="sans-serif">ACTED_IN</text></g></g><g class="layer nodes"><g class="node" transform="translate(131.4380347088878,203.52612671810456)"><circle class="outline" cx="0" cy="0" r="25" fill="#57C7E3" stroke="#23b3d7" stroke-width="2px"/><text text-anchor="middle" pointer-events="none" font-family="sans-serif" dy="1.5625" font-size="25" fill="#2A2C34"/><text text-anchor="middle" pointer-events="none" font-family="sans-serif" dy="1.5625" font-size="25" fill="#2A2C34"/><text text-anchor="middle" pointer-events="none" font-family="sans-serif" dy="1.5625" font-size="25" fill="#2A2C34"/><text text-anchor="middle" pointer-events="none" x="0" y="-5" font-size="10px" fill="#2A2C34" font-family="sans-serif"> Samuel</text><text text-anchor="middle" pointer-events="none" x="0" y="5" font-size="10px" fill="#2A2C34" font-family="sans-serif"> L.</text><text text-anchor="middle" pointer-events="none" x="0" y="15" font-size="10px" fill="#2A2C34" font-family="sans-serif"> Jackson</text></g><g class="node" transform="translate(107.56155270409208,91.40907320835953)"><circle class="outline" cx="0" cy="0" r="25" fill="#F79767" stroke="#f36924" stroke-width="2px"/><text text-anchor="middle" pointer-events="none" font-family="sans-serif" dy="1.5625" font-size="25" fill="#FFFFFF"/><text text-anchor="middle" pointer-events="none" font-family="sans-serif" dy="1.5625" font-size="25" fill="#FFFFFF"/><text text-anchor="middle" pointer-events="none" font-family="sans-serif" dy="1.5625" font-size="25" fill="#FFFFFF"/><text text-anchor="middle" pointer-events="none" x="0" y="-5" font-size="10px" fill="#FFFFFF" font-family="sans-serif"> Captain</text><text text-anchor="middle" pointer-events="none" x="0" y="5" font-size="10px" fill="#FFFFFF" font-family="sans-serif"> America:</text><text text-anchor="middle" pointer-events="none" x="0" y="15" font-size="10px" fill="#FFFFFF" font-family="sans-serif"> The Fi…</text></g><g class="node" transform="translate(217.88791161759656,120.91685607111496)"><circle class="outline" cx="0" cy="0" r="25" fill="#57C7E3" stroke="#23b3d7" stroke-width="2px"/><text text-anchor="middle" pointer-events="none" font-family="sans-serif" dy="1.5625" font-size="25" fill="#2A2C34"/><text text-anchor="middle" pointer-events="none" font-family="sans-serif" dy="1.5625" font-size="25" fill="#2A2C34"/><text text-anchor="middle" pointer-events="none" x="0" y="0" font-size="10px" fill="#2A2C34" font-family="sans-serif"> Stephen</text><text text-anchor="middle" pointer-events="none" x="0" y="10" font-size="10px" fill="#2A2C34" font-family="sans-serif"> McFeely</text></g><g class="node" transform="translate(183.9247745691163,5.112230324779838)"><circle class="outline" cx="0" cy="0" r="25" fill="#57C7E3" stroke="#23b3d7" stroke-width="2px"/><text text-anchor="middle" pointer-events="none" font-family="sans-serif" dy="1.5625" font-size="25" fill="#2A2C34"/><text text-anchor="middle" pointer-events="none" font-family="sans-serif" dy="1.5625" font-size="25" fill="#2A2C34"/><text text-anchor="middle" pointer-events="none" x="0" y="0" font-size="10px" fill="#2A2C34" font-family="sans-serif"> Chris</text><text text-anchor="middle" pointer-events="none" x="0" y="10" font-size="10px" fill="#2A2C34" font-family="sans-serif"> Evans</text></g><g class="node" transform="translate(64.82401579437496,-14.47178564472662)"><circle class="outline" cx="0" cy="0" r="25" fill="#57C7E3" stroke="#23b3d7" stroke-width="2px"/><text text-anchor="middle" pointer-events="none" font-family="sans-serif" dy="1.5625" font-size="25" fill="#2A2C34"/><text text-anchor="middle" pointer-events="none" x="0" y="5" font-size="10px" fill="#2A2C34" font-family="sans-serif"> Christop…</text></g><g class="node" transform="translate(-6.61235151888845,81.4450660560417)"><circle class="outline" cx="0" cy="0" r="25" fill="#57C7E3" stroke="#23b3d7" stroke-width="2px"/><text text-anchor="middle" pointer-events="none" font-family="sans-serif" dy="1.5625" font-size="25" fill="#2A2C34"/><text text-anchor="middle" pointer-events="none" font-family="sans-serif" dy="1.5625" font-size="25" fill="#2A2C34"/><text text-anchor="middle" pointer-events="none" x="0" y="0" font-size="10px" fill="#2A2C34" font-family="sans-serif"> Joe</text><text text-anchor="middle" pointer-events="none" x="0" y="10" font-size="10px" fill="#2A2C34" font-family="sans-serif"> Johnston</text></g><g class="node" transform="translate(30.310471358864824,178.78690856260081)"><circle class="outline" cx="0" cy="0" r="25" fill="#57C7E3" stroke="#23b3d7" stroke-width="2px"/><text text-anchor="middle" pointer-events="none" font-family="sans-serif" dy="1.5625" font-size="25" fill="#2A2C34"/><text text-anchor="middle" pointer-events="none" font-family="sans-serif" dy="1.5625" font-size="25" fill="#2A2C34"/><text text-anchor="middle" pointer-events="none" x="0" y="0" font-size="10px" fill="#2A2C34" font-family="sans-serif"> Hugo</text><text text-anchor="middle" pointer-events="none" x="0" y="10" font-size="10px" fill="#2A2C34" font-family="sans-serif"> Weaving</text></g></g></svg>